<?xml version="1.0" encoding="UTF-8" standalone="no"?>
<svg xmlns="http://www.w3.org/2000/svg" width="100" height="80" viewBox="0 0 100 80" version="1.1">
<g fill="none" stroke="#0087a0" stroke-width="1.5">
<path d="m -73.6,26.9 h 66.6 c 2.4,0 4.2,1.7 4.2,3.9 v 39.2 c 0,2.2 -1.9,3.9 -4.2,3.9 H -73.6 c -2.4,0 -4.2,-1.7 -4.2,-3.9 v -39.2 c 0,-2.2 1.9,-3.9 4.2,-3.9 z" transform="rotate(-90)"/>
<path d="m 54.5,68.6 a 4.1,4.1 0 0 1 -4.1,4.1 4.1,4.1 0 0 1 -4.1,-4.1 4.1,4.1 0 0 1 4.1,-4.1 4.1,4.1 0 0 1 4.1,4.1 z"/>
<path d="M 44.4,7.1 H 56.4" />
</g>
<path fill="#0087a0" stroke="none" d="m 44.1,24.4 c 0.5,-0.1 1.1,0.2 1.3,0.6 l 2.2,5.2 c 0.2,0.5 0.1,1 -0.3,1.3 l -2.8,2.3 c 1.7,3.6 4.6,6.5 8.2,8.2 l 2.3,-2.8 c 0.3,-0.4 0.8,-0.5 1.3,-0.3 l 5.2,2.2 c 0.5,0.2 0.8,0.8 0.7,1.3 -0.4,2.1 -1,3.7 -2.2,5.7 -11.9,0 -21.6,-9.7 -21.6,-21.6 1.9,-1.3 3.3,-1.8 5.7,-2.2 z"/>
</svg>